<svg width="20" height="20" viewBox="0 0 20 20" fill="none" xmlns="http://www.w3.org/2000/svg">
<path fill-rule="evenodd" clip-rule="evenodd" d="M1.17577 5.24913C1.9874 4.28419 3.37891 3.8125 5.4167 3.8125H14.5834C16.6211 3.8125 18.0127 4.28419 18.8243 5.24913C19.628 6.20469 19.7045 7.46006 19.5757 8.63061L18.8878 15.9674C18.7869 16.9098 18.5503 17.943 17.7088 18.7117C16.8736 19.4748 15.5796 19.8542 13.6667 19.8542H6.33336C4.42042 19.8542 3.12643 19.4748 2.29122 18.7117C1.44978 17.943 1.21325 16.9098 1.11227 15.9674L1.1113 15.9583L0.424391 8.63063C0.295573 7.46008 0.372021 6.2047 1.17577 5.24913ZM2.22804 6.13421C1.79562 6.6483 1.6739 7.42076 1.79169 8.48522L1.79296 8.49665L2.47993 15.8254C2.57164 16.6773 2.76149 17.279 3.21863 17.6966C3.68279 18.1206 4.56131 18.4792 6.33336 18.4792H13.6667C15.4387 18.4792 16.3173 18.1206 16.7814 17.6966C17.2386 17.279 17.4284 16.6773 17.5201 15.8254L18.2083 8.48521C18.3261 7.42075 18.2044 6.6483 17.772 6.13421C17.3461 5.62789 16.4597 5.1875 14.5834 5.1875H5.4167C3.54031 5.1875 2.65391 5.62789 2.22804 6.13421Z" fill="#202224"/>
<path fill-rule="evenodd" clip-rule="evenodd" d="M7.06092 2.7135C7.02198 3.01177 7.02088 3.35073 7.02088 3.76732V4.50065C7.02088 4.88035 6.71307 5.18815 6.33338 5.18815C5.95368 5.18815 5.64588 4.88035 5.64588 4.50065L5.64587 3.74349C5.64585 3.35526 5.64583 2.93121 5.69749 2.53549C5.75103 2.12546 5.86574 1.69016 6.13448 1.30133C6.69982 0.483351 7.73543 0.146484 9.26671 0.146484H10.7334C12.2647 0.146484 13.3003 0.483351 13.8656 1.30133C14.1343 1.69016 14.2491 2.12546 14.3026 2.53549C14.3543 2.93122 14.3542 3.35526 14.3542 3.7435L14.3542 4.50065C14.3542 4.88035 14.0464 5.18815 13.6667 5.18815C13.287 5.18815 12.9792 4.88035 12.9792 4.50065V3.76732C12.9792 3.35073 12.9781 3.01177 12.9392 2.7135C12.901 2.42141 12.8324 2.22479 12.7345 2.0831C12.5665 1.84003 12.1354 1.52148 10.7334 1.52148H9.26671C7.86466 1.52148 7.4336 1.84003 7.26561 2.0831C7.16768 2.22479 7.09906 2.42141 7.06092 2.7135Z" fill="#202224"/>
<path fill-rule="evenodd" clip-rule="evenodd" d="M8.85493 10.6882C8.85421 10.7537 8.8542 10.8283 8.8542 10.9167V11.8608C8.8542 12.1189 8.85645 12.3087 8.87886 12.4698C8.90041 12.6246 8.93463 12.7 8.96364 12.7409C8.99599 12.7865 9.15722 12.9792 10 12.9792C10.8467 12.9792 11.006 12.7847 11.0376 12.7395C11.0668 12.6978 11.1009 12.6213 11.1221 12.4646C11.1442 12.3017 11.1459 12.111 11.1459 11.8517V10.9167C11.1459 10.8283 11.1458 10.7537 11.1451 10.6882C11.0797 10.6875 11.0051 10.6875 10.9167 10.6875H9.08336C8.99495 10.6875 8.92036 10.6875 8.85493 10.6882ZM9.05325 9.3125C9.0633 9.31251 9.07334 9.31251 9.08336 9.31251H10.9167C10.9267 9.31251 10.9368 9.31251 10.9468 9.3125C11.1495 9.31246 11.3549 9.31241 11.5226 9.33104C11.6934 9.35002 11.9772 9.40078 12.2049 9.62846C12.4326 9.85613 12.4834 10.1399 12.5023 10.3108C12.521 10.4784 12.5209 10.6839 12.5209 10.8866C12.5209 10.8966 12.5209 10.9066 12.5209 10.9167V11.862C12.5209 12.1 12.5209 12.3817 12.4847 12.649C12.4472 12.9263 12.365 13.241 12.1639 13.5283C11.7349 14.1407 10.9776 14.3542 10 14.3542C9.02784 14.3542 8.27241 14.1435 7.84184 13.536C7.63939 13.2504 7.55559 12.9367 7.51698 12.6593C7.47924 12.3881 7.4792 12.1024 7.4792 11.8608V10.9167C7.4792 10.9066 7.47919 10.8966 7.47919 10.8866C7.47915 10.6839 7.4791 10.4784 7.49772 10.3108C7.51671 10.1399 7.56747 9.85613 7.79514 9.62846C8.02282 9.40078 8.30663 9.35002 8.47749 9.33104C8.64512 9.31241 8.85054 9.31246 9.05325 9.3125Z" fill="#202224"/>
<path fill-rule="evenodd" clip-rule="evenodd" d="M19.4019 8.67966C19.6252 8.98674 19.5573 9.41671 19.2503 9.64004C17.0355 11.2508 14.505 12.2089 11.9193 12.5345C11.5426 12.5819 11.1987 12.315 11.1513 11.9383C11.1038 11.5615 11.3708 11.2177 11.7475 11.1703C14.1117 10.8725 16.4213 9.99726 18.4415 8.52803C18.7486 8.3047 19.1786 8.37259 19.4019 8.67966Z" fill="#202224"/>
<path fill-rule="evenodd" clip-rule="evenodd" d="M0.83434 8.94379C1.0488 8.63045 1.47666 8.5503 1.78999 8.76476C3.75981 10.113 5.98111 10.9256 8.24318 11.1789C8.62052 11.2211 8.89216 11.5613 8.84991 11.9386C8.80766 12.3159 8.46751 12.5876 8.09018 12.5453C5.60391 12.2669 3.16855 11.3745 1.01337 9.89943C0.700035 9.68498 0.619882 9.25712 0.83434 8.94379Z" fill="black"/>
</svg>
