<svg width="17" height="19" viewBox="0 0 17 19" fill="none" xmlns="http://www.w3.org/2000/svg">
<path d="M10.615 8.525C11.0316 8.00429 11.2609 7.35851 11.2658 6.69167C11.2658 5.89182 10.9481 5.12473 10.3825 4.55915C9.81694 3.99357 9.04985 3.67583 8.25 3.67583C7.45015 3.67583 6.68306 3.99357 6.11748 4.55915C5.55191 5.12473 5.23417 5.89182 5.23417 6.69167C5.23914 7.35851 5.46839 8.00429 5.885 8.525C5.06791 9.02224 4.42686 9.76266 4.05167 10.6425C3.99915 10.7541 3.96972 10.8752 3.96511 10.9985C3.96051 11.1218 3.98084 11.2447 4.02489 11.36C4.06893 11.4752 4.13579 11.5804 4.22144 11.6691C4.3071 11.7579 4.40979 11.8285 4.52338 11.8767C4.63696 11.9248 4.75909 11.9495 4.88246 11.9494C5.00583 11.9492 5.12789 11.9241 5.24133 11.8756C5.35478 11.8271 5.45727 11.7563 5.54267 11.6672C5.62807 11.5782 5.69462 11.4729 5.73833 11.3575C5.94901 10.865 6.29894 10.4448 6.74513 10.1484C7.19132 9.85203 7.71436 9.69242 8.25 9.68917C8.78721 9.69063 9.31222 9.84941 9.76021 10.1459C10.2082 10.4424 10.5595 10.8636 10.7708 11.3575C10.841 11.5232 10.9584 11.6646 11.1084 11.764C11.2583 11.8634 11.4342 11.9165 11.6142 11.9167C11.7368 11.9144 11.858 11.8895 11.9717 11.8433C12.1952 11.7484 12.3719 11.5686 12.463 11.3434C12.5541 11.1183 12.5521 10.8662 12.4575 10.6425C12.0799 9.76135 11.4355 9.02077 10.615 8.525ZM8.25 7.85583C8.01573 7.85583 7.78675 7.78624 7.5921 7.65589C7.39744 7.52555 7.24589 7.34032 7.15666 7.12371C7.06744 6.90711 7.04456 6.66888 7.09094 6.43925C7.13731 6.20962 7.25085 5.99894 7.41714 5.83393C7.58344 5.66893 7.79499 5.55703 8.02498 5.51245C8.25496 5.46786 8.493 5.49259 8.70891 5.5835C8.92482 5.67441 9.10886 5.8274 9.23768 6.02306C9.36651 6.21872 9.43432 6.44824 9.4325 6.6825C9.43008 6.99453 9.30443 7.29295 9.08293 7.51273C8.86143 7.73252 8.56204 7.85584 8.25 7.85583ZM13.75 0H2.75C2.02065 0 1.32118 0.289731 0.805456 0.805456C0.289731 1.32118 0 2.02065 0 2.75V12.8333C0 13.5627 0.289731 14.2622 0.805456 14.7779C1.32118 15.2936 2.02065 15.5833 2.75 15.5833H5.12417L7.59917 18.0675C7.68482 18.1525 7.7864 18.2197 7.89809 18.2653C8.00977 18.3109 8.12936 18.334 8.25 18.3333C8.46848 18.3334 8.67979 18.2553 8.84583 18.1133L11.7975 15.5833H13.75C14.4793 15.5833 15.1788 15.2936 15.6945 14.7779C16.2103 14.2622 16.5 13.5627 16.5 12.8333V2.75C16.5 2.02065 16.2103 1.32118 15.6945 0.805456C15.1788 0.289731 14.4793 0 13.75 0ZM14.6667 12.8333C14.6667 13.0764 14.5701 13.3096 14.3982 13.4815C14.2263 13.6534 13.9931 13.75 13.75 13.75H11.4583C11.2399 13.75 11.0285 13.828 10.8625 13.97L8.29583 16.17L6.15083 14.0158C6.06518 13.9309 5.9636 13.8637 5.85191 13.818C5.74023 13.7724 5.62064 13.7493 5.5 13.75H2.75C2.50688 13.75 2.27373 13.6534 2.10182 13.4815C1.92991 13.3096 1.83333 13.0764 1.83333 12.8333V2.75C1.83333 2.50688 1.92991 2.27373 2.10182 2.10182C2.27373 1.92991 2.50688 1.83333 2.75 1.83333H13.75C13.9931 1.83333 14.2263 1.92991 14.3982 2.10182C14.5701 2.27373 14.6667 2.50688 14.6667 2.75V12.8333Z" fill="black"/>
</svg>
