<svg width="19" height="19" viewBox="0 0 19 19" fill="none" xmlns="http://www.w3.org/2000/svg">
<path d="M6.44482 16.957C6.86065 16.957 7.19774 16.6199 7.19774 16.2041C7.19774 15.7883 6.86065 15.4512 6.44482 15.4512C6.02899 15.4512 5.69189 15.7883 5.69189 16.2041C5.69189 16.6199 6.02899 16.957 6.44482 16.957Z" stroke="#060619" stroke-width="1.80702" stroke-linecap="round" stroke-linejoin="round"/>
<path d="M14.727 16.957C15.1429 16.957 15.48 16.6199 15.48 16.2041C15.48 15.7883 15.1429 15.4512 14.727 15.4512C14.3112 15.4512 13.9741 15.7883 13.9741 16.2041C13.9741 16.6199 14.3112 16.957 14.727 16.957Z" stroke="#060619" stroke-width="1.80702" stroke-linecap="round" stroke-linejoin="round"/>
<path d="M1.96484 1.9375H3.47069L5.47347 11.2888C5.54694 11.6313 5.7375 11.9374 6.01235 12.1546C6.28719 12.3717 6.62914 12.4862 6.97932 12.4784H14.3429C14.6856 12.4779 15.0179 12.3604 15.2848 12.1455C15.5518 11.9306 15.7374 11.631 15.8111 11.2963L17.0534 5.70212H4.27632" stroke="#060619" stroke-width="1.80702" stroke-linecap="round" stroke-linejoin="round"/>
</svg>
