<svg width="20" height="20" viewBox="0 0 20 20" fill="none" xmlns="http://www.w3.org/2000/svg">
<path fill-rule="evenodd" clip-rule="evenodd" d="M11.1445 17.3333C11.1445 16.7005 10.6315 16.1875 9.9987 16.1875C9.36587 16.1875 8.85286 16.7005 8.85286 17.3333C8.85286 17.9662 9.36587 18.4792 9.9987 18.4792C10.6315 18.4792 11.1445 17.9662 11.1445 17.3333ZM9.9987 14.8125C11.3909 14.8125 12.5195 15.9411 12.5195 17.3333C12.5195 18.7256 11.3909 19.8542 9.9987 19.8542C8.60648 19.8542 7.47786 18.7256 7.47786 17.3333C7.47786 15.9411 8.60648 14.8125 9.9987 14.8125Z" fill="#202224"/>
<path fill-rule="evenodd" clip-rule="evenodd" d="M18.4778 17.3333C18.4778 16.7005 17.9648 16.1875 17.332 16.1875C16.6992 16.1875 16.1862 16.7005 16.1862 17.3333C16.1862 17.9662 16.6992 18.4792 17.332 18.4792C17.9648 18.4792 18.4778 17.9662 18.4778 17.3333ZM17.332 14.8125C18.7242 14.8125 19.8528 15.9411 19.8528 17.3333C19.8528 18.7256 18.7242 19.8542 17.332 19.8542C15.9398 19.8542 14.8112 18.7256 14.8112 17.3333C14.8112 15.9411 15.9398 14.8125 17.332 14.8125Z" fill="#202224"/>
<path fill-rule="evenodd" clip-rule="evenodd" d="M3.81116 17.3333C3.81116 16.7005 3.29815 16.1875 2.66532 16.1875C2.0325 16.1875 1.51949 16.7005 1.51949 17.3333C1.51949 17.9662 2.0325 18.4792 2.66532 18.4792C3.29815 18.4792 3.81116 17.9662 3.81116 17.3333ZM2.66532 14.8125C4.05754 14.8125 5.18616 15.9411 5.18616 17.3333C5.18616 18.7256 4.05754 19.8542 2.66532 19.8542C1.27311 19.8542 0.144491 18.7256 0.144491 17.3333C0.144491 15.9411 1.27311 14.8125 2.66532 14.8125Z" fill="#202224"/>
<path fill-rule="evenodd" clip-rule="evenodd" d="M11.1445 2.66732C11.1445 2.03449 10.6315 1.52148 9.9987 1.52148C9.36587 1.52148 8.85286 2.03449 8.85286 2.66732C8.85286 3.30014 9.36587 3.81315 9.9987 3.81315C10.6315 3.81315 11.1445 3.30014 11.1445 2.66732ZM9.9987 0.146484C11.3909 0.146484 12.5195 1.2751 12.5195 2.66732C12.5195 4.05954 11.3909 5.18815 9.9987 5.18815C8.60648 5.18815 7.47786 4.05954 7.47786 2.66732C7.47786 1.2751 8.60648 0.146484 9.9987 0.146484Z" fill="#202224"/>
<path fill-rule="evenodd" clip-rule="evenodd" d="M9.99866 3.8125C10.3784 3.8125 10.6862 4.1203 10.6862 4.5L10.6862 15.5C10.6862 15.8797 10.3784 16.1875 9.99866 16.1875C9.61896 16.1875 9.31116 15.8797 9.31116 15.5L9.31116 4.5C9.31116 4.1203 9.61896 3.8125 9.99866 3.8125Z" fill="black"/>
<path fill-rule="evenodd" clip-rule="evenodd" d="M17.1307 9.28535C17.7634 9.91809 18.0195 10.8113 18.0195 11.834L18.0195 15.5007C18.0195 15.8803 17.7117 16.1882 17.332 16.1882C16.9523 16.1882 16.6445 15.8803 16.6445 15.5007L16.6445 11.834C16.6445 11.0233 16.4423 10.5415 16.1584 10.2576C15.8745 9.97369 15.3927 9.77148 14.582 9.77148L5.41537 9.77148C4.60467 9.77148 4.12293 9.97369 3.839 10.2576C3.55507 10.5415 3.35287 11.0233 3.35287 11.834L3.35286 15.5007C3.35286 15.8803 3.04506 16.1882 2.66536 16.1882C2.28567 16.1882 1.97786 15.8803 1.97786 15.5007L1.97787 11.834C1.97787 10.8113 2.23399 9.91809 2.86673 9.28535C3.49947 8.65261 4.39272 8.39648 5.41537 8.39648L14.582 8.39648C15.6047 8.39648 16.4979 8.65261 17.1307 9.28535Z" fill="black"/>
</svg>
