<svg width="20" height="20" viewBox="0 0 20 20" fill="none" xmlns="http://www.w3.org/2000/svg">
<path fill-rule="evenodd" clip-rule="evenodd" d="M1.50281 3.19899C1.50281 1.51936 2.86305 0.146484 4.55531 0.146484C6.24584 0.146484 7.60781 1.50846 7.60781 3.19899C7.60781 4.85268 6.30628 6.19182 4.67187 6.25104C4.63445 6.25239 4.597 6.25069 4.55989 6.24595C4.52278 6.25069 4.48533 6.25239 4.44792 6.25104C2.81264 6.19179 1.5146 4.85291 1.50283 3.2039L1.50281 3.19899ZM2.87781 3.19654C2.88549 4.0964 3.57794 4.81793 4.4492 4.87449C4.52241 4.86799 4.59738 4.86799 4.67059 4.87449C5.54335 4.81788 6.23281 4.09541 6.23281 3.19899C6.23281 2.26785 5.48645 1.52148 4.55531 1.52148C3.62673 1.52148 2.87913 2.27395 2.87781 3.19654ZM13.7401 3.19899C13.7401 2.26785 14.4865 1.52148 15.4176 1.52148C16.3462 1.52148 17.0938 2.27394 17.0951 3.19653C17.0874 4.0964 16.395 4.81793 15.5237 4.87449C15.4505 4.86799 15.3755 4.86799 15.3023 4.87449C14.4296 4.81788 13.7401 4.09541 13.7401 3.19899ZM15.4176 0.146484C13.7271 0.146484 12.3651 1.50846 12.3651 3.19899C12.3651 4.85268 13.6666 6.19182 15.3011 6.25104C15.3385 6.25239 15.3759 6.25069 15.413 6.24595C15.4501 6.25069 15.4876 6.25239 15.525 6.25104C17.1603 6.19179 18.4583 4.85291 18.4701 3.2039H18.4701V3.19899C18.4701 1.51936 17.1099 0.146484 15.4176 0.146484ZM18.5476 7.86946C17.3924 7.10291 15.8033 6.87015 14.4097 7.11429C14.0357 7.17981 13.7856 7.53611 13.8511 7.91011C13.9166 8.28411 14.2729 8.53418 14.6469 8.46866C15.7647 8.27285 16.9803 8.47995 17.7868 9.01478C18.2892 9.34993 18.4494 9.72363 18.4494 10.0098C18.4494 10.2961 18.289 10.67 17.7861 11.0053L17.7849 11.0061C16.9883 11.5397 15.7907 11.7475 14.6696 11.5593C14.2952 11.4964 13.9407 11.749 13.8778 12.1235C13.8149 12.4979 14.0675 12.8525 14.442 12.9153C15.8321 13.1487 17.4022 12.9168 18.5488 12.1493C19.3384 11.6229 19.8244 10.8602 19.8244 10.0098C19.8244 9.15945 19.3384 8.39668 18.5488 7.87028L18.5476 7.86946ZM5.32572 8.46866C4.20796 8.27285 2.99237 8.47995 2.18592 9.01476C1.68352 9.34992 1.52332 9.72363 1.52332 10.0098C1.52332 10.2961 1.68365 10.67 2.18655 11.0053L2.18779 11.0061C2.98435 11.5397 4.18198 11.7475 5.30303 11.5593C5.67748 11.4964 6.032 11.749 6.09487 12.1235C6.15773 12.4979 5.90514 12.8525 5.53068 12.9153C4.14032 13.1487 2.56993 12.9167 1.42321 12.1489C0.633976 11.6225 0.148315 10.86 0.148315 10.0098C0.148315 9.15945 0.634231 8.39668 1.42383 7.87028L1.42507 7.86946C2.58029 7.10291 4.16936 6.87015 5.56299 7.11429C5.93699 7.17981 6.18706 7.53611 6.12154 7.91011C6.05602 8.28411 5.69972 8.53418 5.32572 8.46866ZM9.91761 8.3689C8.98647 8.3689 8.24011 9.11526 8.24011 10.0464C8.24011 10.9428 8.92957 11.6653 9.80233 11.7219C9.87657 11.7153 9.95262 11.7154 10.0268 11.7222C10.891 11.6726 11.5874 10.9487 11.5951 10.0439C11.5938 9.12136 10.8462 8.3689 9.91761 8.3689ZM6.86511 10.0464C6.86511 8.35587 8.22708 6.9939 9.91761 6.9939C11.6099 6.9939 12.9701 8.36677 12.9701 10.0464V10.0513H12.9701C12.9583 11.6959 11.6636 13.051 10.02 13.0986C9.98427 13.0996 9.94849 13.0979 9.91303 13.0934C9.87592 13.0981 9.83847 13.0998 9.80105 13.0984C8.16664 13.0392 6.86511 11.7001 6.86511 10.0464ZM13.0489 14.7268C12.1827 14.1493 11.0746 13.8826 10.0035 13.8826C8.93215 13.8826 7.82273 14.1494 6.95283 14.7257L6.95118 14.7268C6.16157 15.2532 5.67566 16.016 5.67566 16.8663C5.67566 17.7166 6.16145 18.4793 6.95088 19.0057C7.82076 19.5872 8.92845 19.8569 10 19.8569C11.0716 19.8569 12.1793 19.5872 13.0492 19.0056C13.8386 18.4792 14.3244 17.7166 14.3244 16.8663C14.3244 16.016 13.8385 15.2532 13.0489 14.7268ZM7.05066 16.8663C7.05066 16.5802 7.21082 16.2065 7.71308 15.8714C8.30978 15.4764 9.13874 15.2576 10.0035 15.2576C10.8688 15.2576 11.6949 15.4767 12.2862 15.8709C12.7891 16.2061 12.9494 16.58 12.9494 16.8663C12.9494 17.1526 12.7891 17.5265 12.2862 17.8618L12.2854 17.8623C11.6886 18.2614 10.8624 18.4819 10 18.4819C9.13766 18.4819 8.31142 18.2614 7.71471 17.8623L7.71389 17.8618C7.21099 17.5265 7.05066 17.1526 7.05066 16.8663Z" fill="black"/>
</svg>
