<svg width="31" height="31" viewBox="0 0 31 31" fill="none" xmlns="http://www.w3.org/2000/svg">
<path d="M22.0417 1.91406H8.62491C7.03707 1.91406 5.74988 3.20126 5.74988 4.78909V25.8726C5.74988 27.4605 7.03707 28.7477 8.62491 28.7477H22.0417C23.6296 28.7477 24.9167 27.4605 24.9167 25.8726V4.78909C24.9167 3.20126 23.6296 1.91406 22.0417 1.91406Z" stroke="#4AD991" stroke-width="2.09093" stroke-linejoin="round"/>
<path d="M12.4585 4.79395H18.2086" stroke="#4AD991" stroke-width="2.09093" stroke-linecap="round" stroke-linejoin="round"/>
<path d="M13.3347 25.5561C13.2472 25.5562 13.1606 25.5344 13.0812 25.4922C13.0018 25.4501 12.9314 25.3886 12.8751 25.3121C12.8187 25.2357 12.7777 25.1461 12.755 25.0496C12.7322 24.9531 12.7283 24.8521 12.7434 24.7537V24.7496L13.6618 18.9972H10.1062C10.0075 18.9972 9.91081 18.9653 9.82734 18.9052C9.74387 18.8452 9.67701 18.7594 9.63449 18.6578C9.59197 18.5562 9.57554 18.443 9.58709 18.3312C9.59864 18.2193 9.6377 18.1136 9.69975 18.026L16.8603 7.92907C16.9418 7.81106 17.0549 7.72675 17.1824 7.68902C17.3099 7.6513 17.4447 7.66224 17.5662 7.72018C17.6878 7.77812 17.7893 7.87986 17.8553 8.00985C17.9214 8.13984 17.9483 8.29093 17.9319 8.44C17.9319 8.45118 17.9293 8.46198 17.9276 8.47316L17.006 14.2271H20.5609C20.6596 14.2271 20.7563 14.259 20.8398 14.319C20.9232 14.3791 20.9901 14.4649 21.0326 14.5665C21.0751 14.6681 21.0916 14.7813 21.08 14.8931C21.0685 15.0049 21.0294 15.1107 20.9674 15.1983L13.8059 25.2952C13.7496 25.3763 13.678 25.4419 13.5964 25.487C13.5149 25.5322 13.4254 25.5558 13.3347 25.5561V25.5561Z" fill="#4AD991"/>
</svg>
