<svg width="18" height="19" viewBox="0 0 18 19" fill="none" xmlns="http://www.w3.org/2000/svg">
<path fill-rule="evenodd" clip-rule="evenodd" d="M8.80748 1.49121C8.46649 1.49121 8.16351 1.55083 7.9701 1.63743L7.96817 1.6383L2.55831 4.04063C1.84821 4.35392 1.79956 4.63735 1.79956 4.66746C1.79956 4.69757 1.84821 4.98101 2.55831 5.29429L2.55983 5.29496L7.9701 7.69749C8.16351 7.78409 8.46649 7.84371 8.80748 7.84371C9.14847 7.84371 9.45145 7.78409 9.64485 7.69749L9.64679 7.69663L15.0551 5.29496L15.0566 5.29429C15.7667 4.98101 15.8154 4.69757 15.8154 4.66746C15.8154 4.63735 15.7667 4.35391 15.0566 4.04063L9.64679 1.63829L9.64485 1.63743C9.45145 1.55083 9.14847 1.49121 8.80748 1.49121ZM10.2057 0.382031C9.78518 0.193964 9.27736 0.116211 8.80748 0.116211C8.3376 0.116211 7.82977 0.193964 7.40921 0.382031C7.40887 0.382184 7.40853 0.382337 7.40819 0.38249L2.00331 2.78262C2.00307 2.78273 2.00355 2.78251 2.00331 2.78262C1.15539 3.15688 0.424561 3.78574 0.424561 4.66746C0.424561 5.54915 1.15461 6.17768 2.00249 6.55194C2.00222 6.55182 2.00276 6.55206 2.00249 6.55194L7.40819 8.95243C7.40858 8.95261 7.40897 8.95278 7.40936 8.95295C7.82989 9.14097 8.33765 9.21871 8.80748 9.21871C9.27733 9.21871 9.78512 9.14097 10.2057 8.95293C10.206 8.95276 10.2064 8.9526 10.2068 8.95243L15.6116 6.5523C15.6114 6.55241 15.6119 6.55219 15.6116 6.5523C16.4596 6.17804 17.1904 5.54919 17.1904 4.66746C17.1904 3.78571 16.4602 3.15716 15.6123 2.7829C15.6121 2.78281 15.6125 2.783 15.6123 2.7829L10.2068 0.38249C10.2064 0.382337 10.2061 0.382184 10.2057 0.382031Z" fill="#202224"/>
<path fill-rule="evenodd" clip-rule="evenodd" d="M0.75 7.729C1.1297 7.729 1.4375 8.03681 1.4375 8.4165C1.4375 8.63961 1.52576 8.92608 1.70324 9.19886C1.88071 9.47162 2.10673 9.66821 2.31104 9.75842L2.31273 9.75917L8.5356 12.5269C8.53537 12.5268 8.53582 12.527 8.5356 12.5269C8.83672 12.6599 9.174 12.6579 9.45986 12.529L9.46311 12.5275L15.6873 9.75917L15.689 9.75842C15.8933 9.66821 16.1193 9.47162 16.2968 9.19886C16.4742 8.92608 16.5625 8.63961 16.5625 8.4165C16.5625 8.03681 16.8703 7.729 17.25 7.729C17.6297 7.729 17.9375 8.03681 17.9375 8.4165C17.9375 8.96339 17.737 9.50651 17.4493 9.94873C17.1617 10.3907 16.7463 10.7944 16.2451 11.0159C16.2449 11.016 16.2454 11.0158 16.2451 11.0159L10.0251 13.7824C10.0245 13.7827 10.0239 13.7829 10.0233 13.7832C9.37481 14.075 8.63083 14.0725 7.9794 13.7844L1.75563 11.0163C1.75532 11.0161 1.755 11.016 1.75469 11.0158C1.25359 10.7943 0.838273 10.3907 0.550718 9.94873C0.26299 9.50651 0.0625 8.96339 0.0625 8.4165C0.0625 8.03681 0.370304 7.729 0.75 7.729Z" fill="#202224"/>
<path fill-rule="evenodd" clip-rule="evenodd" d="M0.75 12.3125C1.1297 12.3125 1.4375 12.6203 1.4375 13C1.4375 13.5782 1.77937 14.104 2.31341 14.343C2.31324 14.3429 2.31358 14.343 2.31341 14.343L8.5356 17.1104C8.53537 17.1103 8.53582 17.1105 8.5356 17.1104C8.83672 17.2434 9.174 17.2414 9.45986 17.1125L9.46311 17.111L15.6861 14.3432C15.6859 14.3433 15.6863 14.3431 15.6861 14.3432C16.2201 14.1042 16.5625 13.5782 16.5625 13C16.5625 12.6203 16.8703 12.3125 17.25 12.3125C17.6297 12.3125 17.9375 12.6203 17.9375 13C17.9375 14.1266 17.2713 15.1407 16.2473 15.5985L16.2461 15.599L10.0251 18.3659C10.0245 18.3662 10.0239 18.3664 10.0233 18.3667C9.37481 18.6585 8.63083 18.656 7.9794 18.3679L1.75274 15.5985C0.728744 15.1407 0.0625 14.1266 0.0625 13C0.0625 12.6203 0.370304 12.3125 0.75 12.3125Z" fill="#202224"/>
</svg>
