<svg width="22" height="23" viewBox="0 0 22 23" fill="none" xmlns="http://www.w3.org/2000/svg">
<g clip-path="url(#clip0_284_2757)">
<path d="M15.8124 1.70654H6.18744C5.04835 1.70654 4.12494 2.62996 4.12494 3.76904V18.894C4.12494 20.0331 5.04835 20.9565 6.18744 20.9565H15.8124C16.9515 20.9565 17.8749 20.0331 17.8749 18.894V3.76904C17.8749 2.62996 16.9515 1.70654 15.8124 1.70654Z" stroke="black" stroke-width="1.5" stroke-linejoin="round"/>
<path d="M8.9375 3.77246H13.0625" stroke="black" stroke-width="1.5" stroke-linecap="round" stroke-linejoin="round"/>
<path d="M9.56608 18.6668C9.50325 18.6669 9.44117 18.6513 9.3842 18.621C9.32723 18.5908 9.27676 18.5467 9.23633 18.4918C9.19589 18.437 9.16649 18.3727 9.15016 18.3035C9.13384 18.2343 9.13101 18.1618 9.14186 18.0912V18.0883L9.80069 13.9616H7.24996C7.17916 13.9616 7.10981 13.9387 7.04993 13.8956C6.99005 13.8525 6.94208 13.791 6.91158 13.7181C6.88108 13.6452 6.86929 13.564 6.87758 13.4838C6.88586 13.4036 6.91388 13.3277 6.9584 13.2649L12.0952 6.02151C12.1537 5.93685 12.2349 5.87636 12.3263 5.8493C12.4178 5.82224 12.5145 5.83009 12.6017 5.87165C12.6889 5.91322 12.7617 5.98621 12.8091 6.07946C12.8565 6.17271 12.8757 6.2811 12.864 6.38804C12.864 6.39606 12.8621 6.40381 12.861 6.41183L12.1998 10.5396H14.75C14.8208 10.5396 14.8902 10.5625 14.9501 10.6056C15.01 10.6487 15.0579 10.7102 15.0884 10.7831C15.1189 10.856 15.1307 10.9372 15.1224 11.0174C15.1141 11.0976 15.0861 11.1735 15.0416 11.2363L9.90405 18.4797C9.86368 18.5379 9.81233 18.5849 9.75381 18.6173C9.6953 18.6497 9.63113 18.6666 9.56608 18.6668Z" fill="black"/>
</g>
<defs>
<clipPath id="clip0_284_2757">
<rect width="22" height="22" fill="white" transform="translate(0 0.333496)"/>
</clipPath>
</defs>
</svg>
