<svg width="19" height="19" viewBox="0 0 19 19" fill="none" xmlns="http://www.w3.org/2000/svg">
<g clip-path="url(#clip0_94_9125)">
<path d="M9.19334 12.4394C10.8567 12.4394 12.205 11.091 12.205 9.42771C12.205 7.7644 10.8567 6.41602 9.19334 6.41602C7.53002 6.41602 6.18164 7.7644 6.18164 9.42771C6.18164 11.091 7.53002 12.4394 9.19334 12.4394Z" stroke="#060619" stroke-width="1.80702" stroke-linecap="round" stroke-linejoin="round"/>
<path d="M12.205 6.41747V10.1821C12.205 10.7812 12.443 11.3557 12.8666 11.7793C13.2902 12.2029 13.8647 12.4409 14.4638 12.4409C15.0628 12.4409 15.6374 12.2029 16.061 11.7793C16.4846 11.3557 16.7226 10.7812 16.7226 10.1821V9.42916C16.7224 7.72984 16.1475 6.08052 15.0912 4.74939C14.0348 3.41826 12.5593 2.48361 10.9044 2.09741C9.24957 1.71122 7.51273 1.89619 5.97633 2.62225C4.43992 3.34832 3.19431 4.57277 2.44203 6.09651C1.68976 7.62026 1.47506 9.35367 1.83285 11.0149C2.19064 12.6761 3.09988 14.1675 4.41272 15.2465C5.72555 16.3254 7.36478 16.9285 9.06386 16.9578C10.7629 16.987 12.4219 16.4406 13.7711 15.4074" stroke="#060619" stroke-width="1.80702" stroke-linecap="round" stroke-linejoin="round"/>
</g>
<defs>
<clipPath id="clip0_94_9125">
<rect width="18.0702" height="18.0702" fill="white" transform="translate(0.158203 0.394531)"/>
</clipPath>
</defs>
</svg>
