<svg width="75" height="23" viewBox="0 0 75 23" fill="none" xmlns="http://www.w3.org/2000/svg">
<path d="M14.6152 18.5723V22H3.87793V18.5723H14.6152ZM5.29883 0.671875V22H0.904297V0.671875H5.29883ZM33.6875 10.8379V11.8486C33.6875 13.4697 33.4678 14.9248 33.0283 16.2139C32.5889 17.5029 31.9688 18.6016 31.168 19.5098C30.3672 20.4082 29.4102 21.0967 28.2969 21.5752C27.1934 22.0537 25.9678 22.293 24.6201 22.293C23.2822 22.293 22.0566 22.0537 20.9434 21.5752C19.8398 21.0967 18.8828 20.4082 18.0723 19.5098C17.2617 18.6016 16.6318 17.5029 16.1826 16.2139C15.7432 14.9248 15.5234 13.4697 15.5234 11.8486V10.8379C15.5234 9.20703 15.7432 7.75195 16.1826 6.47266C16.6221 5.18359 17.2422 4.08496 18.043 3.17676C18.8535 2.26855 19.8105 1.5752 20.9141 1.09668C22.0273 0.618164 23.2529 0.378906 24.5908 0.378906C25.9385 0.378906 27.1641 0.618164 28.2676 1.09668C29.3809 1.5752 30.3379 2.26855 31.1387 3.17676C31.9492 4.08496 32.5742 5.18359 33.0137 6.47266C33.4629 7.75195 33.6875 9.20703 33.6875 10.8379ZM29.249 11.8486V10.8086C29.249 9.67578 29.1465 8.67969 28.9414 7.82031C28.7363 6.96094 28.4336 6.23828 28.0332 5.65234C27.6328 5.06641 27.1445 4.62695 26.5684 4.33398C25.9922 4.03125 25.333 3.87988 24.5908 3.87988C23.8486 3.87988 23.1895 4.03125 22.6133 4.33398C22.0469 4.62695 21.5635 5.06641 21.1631 5.65234C20.7725 6.23828 20.4746 6.96094 20.2695 7.82031C20.0645 8.67969 19.9619 9.67578 19.9619 10.8086V11.8486C19.9619 12.9717 20.0645 13.9678 20.2695 14.8369C20.4746 15.6963 20.7773 16.4238 21.1777 17.0195C21.5781 17.6055 22.0664 18.0498 22.6426 18.3525C23.2188 18.6553 23.8779 18.8066 24.6201 18.8066C25.3623 18.8066 26.0215 18.6553 26.5977 18.3525C27.1738 18.0498 27.6572 17.6055 28.0479 17.0195C28.4385 16.4238 28.7363 15.6963 28.9414 14.8369C29.1465 13.9678 29.249 12.9717 29.249 11.8486ZM53.7559 10.8525V19.3047C53.4238 19.7051 52.9111 20.1396 52.2178 20.6084C51.5244 21.0674 50.6309 21.4629 49.5371 21.7949C48.4434 22.127 47.1201 22.293 45.5674 22.293C44.1904 22.293 42.9355 22.0684 41.8027 21.6191C40.6699 21.1602 39.6934 20.4912 38.873 19.6123C38.0625 18.7334 37.4375 17.6592 36.998 16.3896C36.5586 15.1104 36.3389 13.6504 36.3389 12.0098V10.6768C36.3389 9.03613 36.5488 7.57617 36.9688 6.29688C37.3984 5.01758 38.0088 3.93848 38.7998 3.05957C39.5908 2.18066 40.5332 1.51172 41.627 1.05273C42.7207 0.59375 43.9365 0.364258 45.2744 0.364258C47.1299 0.364258 48.6533 0.666992 49.8447 1.27246C51.0361 1.86816 51.9443 2.69824 52.5693 3.7627C53.2041 4.81738 53.5947 6.02832 53.7412 7.39551H49.4785C49.3711 6.67285 49.166 6.04297 48.8633 5.50586C48.5605 4.96875 48.126 4.54883 47.5596 4.24609C47.0029 3.94336 46.2803 3.79199 45.3916 3.79199C44.6592 3.79199 44.0049 3.94336 43.4287 4.24609C42.8623 4.53906 42.3838 4.97363 41.9932 5.5498C41.6025 6.12598 41.3047 6.83887 41.0996 7.68848C40.8945 8.53809 40.792 9.52441 40.792 10.6475V12.0098C40.792 13.123 40.8994 14.1094 41.1143 14.9688C41.3291 15.8184 41.6465 16.5361 42.0664 17.1221C42.4961 17.6982 43.0234 18.1328 43.6484 18.4258C44.2734 18.7188 45.001 18.8652 45.8311 18.8652C46.5244 18.8652 47.1006 18.8066 47.5596 18.6895C48.0283 18.5723 48.4043 18.4307 48.6875 18.2646C48.9805 18.0889 49.2051 17.9229 49.3613 17.7666V13.9873H45.3477V10.8525H53.7559ZM74.8203 10.8379V11.8486C74.8203 13.4697 74.6006 14.9248 74.1611 16.2139C73.7217 17.5029 73.1016 18.6016 72.3008 19.5098C71.5 20.4082 70.543 21.0967 69.4297 21.5752C68.3262 22.0537 67.1006 22.293 65.7529 22.293C64.415 22.293 63.1895 22.0537 62.0762 21.5752C60.9727 21.0967 60.0156 20.4082 59.2051 19.5098C58.3945 18.6016 57.7646 17.5029 57.3154 16.2139C56.876 14.9248 56.6562 13.4697 56.6562 11.8486V10.8379C56.6562 9.20703 56.876 7.75195 57.3154 6.47266C57.7549 5.18359 58.375 4.08496 59.1758 3.17676C59.9863 2.26855 60.9434 1.5752 62.0469 1.09668C63.1602 0.618164 64.3857 0.378906 65.7236 0.378906C67.0713 0.378906 68.2969 0.618164 69.4004 1.09668C70.5137 1.5752 71.4707 2.26855 72.2715 3.17676C73.082 4.08496 73.707 5.18359 74.1465 6.47266C74.5957 7.75195 74.8203 9.20703 74.8203 10.8379ZM70.3818 11.8486V10.8086C70.3818 9.67578 70.2793 8.67969 70.0742 7.82031C69.8691 6.96094 69.5664 6.23828 69.166 5.65234C68.7656 5.06641 68.2773 4.62695 67.7012 4.33398C67.125 4.03125 66.4658 3.87988 65.7236 3.87988C64.9814 3.87988 64.3223 4.03125 63.7461 4.33398C63.1797 4.62695 62.6963 5.06641 62.2959 5.65234C61.9053 6.23828 61.6074 6.96094 61.4023 7.82031C61.1973 8.67969 61.0947 9.67578 61.0947 10.8086V11.8486C61.0947 12.9717 61.1973 13.9678 61.4023 14.8369C61.6074 15.6963 61.9102 16.4238 62.3105 17.0195C62.7109 17.6055 63.1992 18.0498 63.7754 18.3525C64.3516 18.6553 65.0107 18.8066 65.7529 18.8066C66.4951 18.8066 67.1543 18.6553 67.7305 18.3525C68.3066 18.0498 68.79 17.6055 69.1807 17.0195C69.5713 16.4238 69.8691 15.6963 70.0742 14.8369C70.2793 13.9678 70.3818 12.9717 70.3818 11.8486Z" fill="#0A2FB6"/>
</svg>
