<svg width="20" height="16" viewBox="0 0 20 16" fill="none" xmlns="http://www.w3.org/2000/svg">
<path d="M19.1561 5.84562L18.2394 5.34146L9.98944 0.758125H9.88861C9.83241 0.734364 9.77409 0.715949 9.71444 0.703125H9.54027H9.37527C9.31264 0.715958 9.25129 0.734364 9.19194 0.758125H9.09111L0.841106 5.34146C0.700033 5.42141 0.582692 5.53735 0.501055 5.67745C0.419417 5.81755 0.376404 5.97681 0.376404 6.13896C0.376404 6.30111 0.419417 6.46036 0.501055 6.60046C0.582692 6.74057 0.700033 6.85651 0.841106 6.93646L3.12361 8.20146V12.5465C3.12361 13.2758 3.41334 13.9753 3.92906 14.491C4.44479 15.0067 5.14426 15.2965 5.87361 15.2965H13.2069C13.9363 15.2965 14.6358 15.0067 15.1515 14.491C15.6672 13.9753 15.9569 13.2758 15.9569 12.5465V8.20146L17.7903 7.17479V9.79646C17.7903 10.0396 17.8868 10.2727 18.0588 10.4446C18.2307 10.6165 18.4638 10.7131 18.7069 10.7131C18.9501 10.7131 19.1832 10.6165 19.3551 10.4446C19.527 10.2727 19.6236 10.0396 19.6236 9.79646V6.64313C19.6233 6.4807 19.5799 6.32126 19.4977 6.18113C19.4156 6.041 19.2977 5.92521 19.1561 5.84562ZM14.1236 12.5465C14.1236 12.7896 14.027 13.0227 13.8551 13.1946C13.6832 13.3665 13.4501 13.4631 13.2069 13.4631H5.87361C5.63049 13.4631 5.39733 13.3665 5.22543 13.1946C5.05352 13.0227 4.95694 12.7896 4.95694 12.5465V9.21896L9.09111 11.5106L9.22861 11.5656H9.31111C9.38719 11.5752 9.46418 11.5752 9.54027 11.5656C9.61636 11.5752 9.69335 11.5752 9.76944 11.5656H9.85194C9.9006 11.5554 9.94712 11.5368 9.98944 11.5106L14.1236 9.21896V12.5465ZM9.54027 9.66812L3.17861 6.12979L9.54027 2.59146L15.9019 6.12979L9.54027 9.66812Z" fill="#232323"/>
</svg>
