<svg width="26" height="26" viewBox="0 0 26 26" fill="none" xmlns="http://www.w3.org/2000/svg">
<path fill-rule="evenodd" clip-rule="evenodd" d="M12.7375 2.30615C12.2725 2.30615 11.8594 2.38745 11.5956 2.50554L11.593 2.50672L4.21594 5.78264C3.24762 6.20984 3.18127 6.59634 3.18127 6.6374C3.18127 6.67846 3.24762 7.06497 4.21594 7.49217L4.21801 7.49308L11.5956 10.7693C11.8594 10.8874 12.2725 10.9687 12.7375 10.9687C13.2025 10.9687 13.6157 10.8874 13.8794 10.7693L13.882 10.7681L21.257 7.49308L21.2591 7.49217C22.2274 7.06497 22.2938 6.67846 22.2938 6.6374C22.2938 6.59634 22.2274 6.20984 21.2591 5.78264L13.882 2.50672L13.8794 2.50554C13.6157 2.38745 13.2025 2.30615 12.7375 2.30615ZM14.6442 0.793634C14.0708 0.537179 13.3783 0.431152 12.7375 0.431152C12.0968 0.431152 11.4043 0.537179 10.8308 0.793634C10.8303 0.793843 10.8299 0.794052 10.8294 0.794261L3.45911 4.06717C3.45944 4.06702 3.45878 4.06731 3.45911 4.06717C2.30285 4.57752 1.30627 5.43505 1.30627 6.6374C1.30627 7.83971 2.30179 8.69679 3.458 9.20715C3.45763 9.20698 3.45837 9.20731 3.458 9.20715L10.8294 12.4805C10.8299 12.4808 10.8305 12.481 10.831 12.4813C11.4044 12.7376 12.0969 12.8437 12.7375 12.8437C13.3782 12.8437 14.0707 12.7376 14.6441 12.4812C14.6446 12.481 14.6451 12.4808 14.6456 12.4805L22.0159 9.20764C22.0156 9.20778 22.0163 9.20749 22.0159 9.20764C23.1722 8.69729 24.1688 7.83975 24.1688 6.6374C24.1688 5.43501 23.1731 4.5779 22.0168 4.06755C22.0171 4.06768 22.0165 4.06742 22.0168 4.06755L14.6456 0.794261C14.6452 0.794052 14.6447 0.793843 14.6442 0.793634Z" fill="#C47457"/>
<path fill-rule="evenodd" clip-rule="evenodd" d="M1.75 10.812C2.26777 10.812 2.6875 11.2317 2.6875 11.7495C2.6875 12.0538 2.80785 12.4444 3.04987 12.8164C3.29188 13.1883 3.60008 13.4564 3.87869 13.5794L3.88099 13.5804L12.3667 17.3546C12.367 17.3548 12.3664 17.3545 12.3667 17.3546C12.7773 17.5359 13.2373 17.5332 13.6271 17.3574L13.6315 17.3554L22.119 13.5804L22.1213 13.5794C22.3999 13.4564 22.7081 13.1883 22.9501 12.8164C23.1921 12.4444 23.3125 12.0538 23.3125 11.7495C23.3125 11.2317 23.7322 10.812 24.25 10.812C24.7678 10.812 25.1875 11.2317 25.1875 11.7495C25.1875 12.4953 24.9141 13.2359 24.5217 13.8389C24.1296 14.4416 23.5632 14.9921 22.8797 15.2942C22.8794 15.2943 22.8801 15.294 22.8797 15.2942L14.3979 19.0666C14.3971 19.067 14.3963 19.0674 14.3954 19.0677C13.5111 19.4657 12.4966 19.4623 11.6083 19.0694L3.12131 15.2946C3.12089 15.2944 3.12046 15.2942 3.12003 15.2941C2.43671 14.992 1.87037 14.4416 1.47825 13.8389C1.0859 13.2359 0.8125 12.4953 0.8125 11.7495C0.8125 11.2317 1.23223 10.812 1.75 10.812Z" fill="#C47457"/>
<path fill-rule="evenodd" clip-rule="evenodd" d="M1.75 17.0625C2.26777 17.0625 2.6875 17.4822 2.6875 18C2.6875 18.7885 3.15369 19.5054 3.88192 19.8313C3.88215 19.8314 3.88168 19.8312 3.88192 19.8313L12.3667 23.6051C12.367 23.6053 12.3664 23.605 12.3667 23.6051C12.7773 23.7864 13.2373 23.7837 13.6271 23.6079L13.6315 23.6059L22.1174 19.8316C22.1176 19.8315 22.1171 19.8317 22.1174 19.8316C22.8456 19.5057 23.3125 18.7884 23.3125 18C23.3125 17.4822 23.7322 17.0625 24.25 17.0625C24.7678 17.0625 25.1875 17.4822 25.1875 18C25.1875 19.5363 24.279 20.9191 22.8826 21.5434L22.881 21.5441L14.3979 25.3171C14.3971 25.3175 14.3963 25.3179 14.3954 25.3182C13.5111 25.7162 12.4966 25.7128 11.6083 25.3199L3.11738 21.5434C1.72101 20.9191 0.8125 19.5363 0.8125 18C0.8125 17.4822 1.23223 17.0625 1.75 17.0625Z" fill="#C47457"/>
</svg>
