<svg width="28" height="31" viewBox="0 0 28 31" fill="none" xmlns="http://www.w3.org/2000/svg">
<path d="M17.6498 14.1229C18.3276 13.2758 18.7005 12.2252 18.7086 11.1403C18.7086 9.8391 18.1917 8.59115 17.2716 7.67103C16.3514 6.75091 15.1035 6.23399 13.8023 6.23399C12.501 6.23399 11.2531 6.75091 10.3329 7.67103C9.41282 8.59115 8.8959 9.8391 8.8959 11.1403C8.90398 12.2252 9.27694 13.2758 9.95472 14.1229C8.62542 14.9319 7.58251 16.1364 6.97213 17.5678C6.8867 17.7494 6.83881 17.9464 6.83132 18.147C6.82384 18.3475 6.85691 18.5476 6.92857 18.735C7.00022 18.9225 7.10898 19.0936 7.24833 19.238C7.38768 19.3825 7.55475 19.4973 7.73954 19.5756C7.92432 19.654 8.12302 19.6942 8.32372 19.6939C8.52442 19.6936 8.723 19.6528 8.90756 19.5739C9.09211 19.4951 9.25886 19.3798 9.39779 19.2349C9.53672 19.0901 9.64499 18.9187 9.71611 18.731C10.0589 17.9298 10.6281 17.2462 11.354 16.764C12.0799 16.2818 12.9308 16.0222 13.8023 16.0169V16.0169C14.6762 16.0193 15.5303 16.2776 16.2592 16.7599C16.988 17.2423 17.5596 17.9275 17.9033 18.731C18.0175 19.0006 18.2084 19.2306 18.4524 19.3923C18.6964 19.5541 18.9826 19.6405 19.2753 19.6407C19.4748 19.637 19.672 19.5965 19.8569 19.5214C20.2206 19.3669 20.5081 19.0744 20.6563 18.7081C20.8045 18.3419 20.8012 17.9317 20.6473 17.5678C20.033 16.1343 18.9846 14.9295 17.6498 14.1229V14.1229ZM13.8023 13.0343C13.4211 13.0343 13.0486 12.9211 12.7319 12.709C12.4153 12.497 12.1687 12.1956 12.0235 11.8432C11.8784 11.4908 11.8412 11.1033 11.9166 10.7297C11.9921 10.3561 12.1768 10.0134 12.4473 9.74493C12.7178 9.47649 13.062 9.29445 13.4362 9.22192C13.8103 9.14938 14.1976 9.18961 14.5488 9.33751C14.9001 9.4854 15.1995 9.73429 15.4091 10.0526C15.6187 10.3709 15.729 10.7443 15.726 11.1254C15.7221 11.6331 15.5177 12.1186 15.1573 12.4761C14.797 12.8337 14.3099 13.0343 13.8023 13.0343V13.0343ZM22.75 0.253906H4.85449C3.66795 0.253906 2.53 0.72526 1.69098 1.56428C0.851969 2.40329 0.380615 3.54124 0.380615 4.72779V21.132C0.380615 22.3186 0.851969 23.4565 1.69098 24.2955C2.53 25.1345 3.66795 25.6059 4.85449 25.6059H8.71694L12.7434 29.6473C12.8828 29.7855 13.048 29.8949 13.2297 29.9691C13.4114 30.0433 13.606 30.0809 13.8023 30.0798C14.1577 30.0798 14.5015 29.9529 14.7716 29.7219L19.5736 25.6059H22.75C23.9366 25.6059 25.0745 25.1345 25.9135 24.2955C26.7525 23.4565 27.2239 22.3186 27.2239 21.132V4.72779C27.2239 3.54124 26.7525 2.40329 25.9135 1.56428C25.0745 0.72526 23.9366 0.253906 22.75 0.253906ZM24.2413 21.132C24.2413 21.5275 24.0842 21.9068 23.8045 22.1865C23.5248 22.4662 23.1455 22.6233 22.75 22.6233H19.0218C18.6663 22.6233 18.3226 22.7502 18.0524 22.9812L13.8768 26.5603L10.3872 23.0558C10.2478 22.9176 10.0826 22.8082 9.90089 22.734C9.7192 22.6598 9.52464 22.6222 9.32837 22.6233H4.85449C4.45898 22.6233 4.07966 22.4662 3.79999 22.1865C3.52032 21.9068 3.3632 21.5275 3.3632 21.132V4.72779C3.3632 4.33227 3.52032 3.95295 3.79999 3.67328C4.07966 3.39361 4.45898 3.23649 4.85449 3.23649H22.75C23.1455 3.23649 23.5248 3.39361 23.8045 3.67328C24.0842 3.95295 24.2413 4.33227 24.2413 4.72779V21.132Z" fill="#F6AC00"/>
</svg>
