<svg width="33" height="24" viewBox="0 0 33 24" fill="none" xmlns="http://www.w3.org/2000/svg">
<path opacity="0.587821" fill-rule="evenodd" clip-rule="evenodd" d="M7.16663 5.33333C7.16663 8.27885 9.55444 10.6667 12.5 10.6667C15.4455 10.6667 17.8333 8.27885 17.8333 5.33333C17.8333 2.38781 15.4455 0 12.5 0C9.55444 0 7.16663 2.38781 7.16663 5.33333ZM20.5 10.6667C20.5 12.8758 22.2908 14.6667 24.5 14.6667C26.7091 14.6667 28.5 12.8758 28.5 10.6667C28.5 8.45753 26.7091 6.66667 24.5 6.66667C22.2908 6.66667 20.5 8.45753 20.5 10.6667Z" fill="#8280FF"/>
<path fill-rule="evenodd" clip-rule="evenodd" d="M12.4778 13.3335C6.18255 13.3335 1.01768 16.5689 0.500869 22.9324C0.472718 23.2791 1.13562 24.0002 1.47 24.0002H23.4956C24.4972 24.0002 24.5128 23.1941 24.4972 22.9335C24.1065 16.3911 18.8616 13.3335 12.4778 13.3335ZM31.7746 24.0002L26.6333 24.0002C26.6333 20.9989 25.6417 18.2293 23.9683 16.001C28.5103 16.0506 32.2189 18.347 32.498 23.2002C32.5092 23.3956 32.498 24.0002 31.7746 24.0002Z" fill="#8280FF"/>
</svg>
