<svg width="18" height="18" viewBox="0 0 18 18" fill="none" xmlns="http://www.w3.org/2000/svg">
<path d="M3.15625 3.19922C4.78906 1.56641 6.73698 0.75 9 0.75C11.263 0.75 13.1966 1.56641 14.8008 3.19922C16.4336 4.80339 17.25 6.73698 17.25 9C17.25 11.263 16.4336 13.2109 14.8008 14.8438C13.1966 16.4479 11.263 17.25 9 17.25C6.73698 17.25 4.78906 16.4479 3.15625 14.8438C1.55208 13.2109 0.75 11.263 0.75 9C0.75 6.73698 1.55208 4.80339 3.15625 3.19922ZM13.8555 4.14453C12.5091 2.79818 10.8906 2.125 9 2.125C7.10938 2.125 5.49089 2.79818 4.14453 4.14453C2.79818 5.49089 2.125 7.10938 2.125 9C2.125 10.8906 2.79818 12.5091 4.14453 13.8555C5.49089 15.2018 7.10938 15.875 9 15.875C10.8906 15.875 12.5091 15.2018 13.8555 13.8555C15.2018 12.5091 15.875 10.8906 15.875 9C15.875 7.10938 15.2018 5.49089 13.8555 4.14453ZM8.48438 3.02734C8.6276 2.88411 8.79948 2.8125 9 2.8125C9.20052 2.8125 9.35807 2.88411 9.47266 3.02734C9.61589 3.14193 9.6875 3.29948 9.6875 3.5C9.6875 3.70052 9.61589 3.8724 9.47266 4.01562C9.35807 4.13021 9.20052 4.1875 9 4.1875C8.79948 4.1875 8.6276 4.13021 8.48438 4.01562C8.36979 3.8724 8.3125 3.70052 8.3125 3.5C8.3125 3.29948 8.36979 3.14193 8.48438 3.02734ZM4.61719 4.66016C4.76042 4.51693 4.91797 4.44531 5.08984 4.44531C5.29036 4.44531 5.46224 4.51693 5.60547 4.66016C5.7487 4.77474 5.82031 4.93229 5.82031 5.13281C5.82031 5.30469 5.7487 5.46224 5.60547 5.60547C5.46224 5.7487 5.29036 5.82031 5.08984 5.82031C4.91797 5.82031 4.76042 5.7487 4.61719 5.60547C4.5026 5.46224 4.44531 5.30469 4.44531 5.13281C4.44531 4.93229 4.5026 4.77474 4.61719 4.66016ZM12.3945 4.61719L13.3828 5.60547L10.332 8.65625C10.3607 8.77083 10.375 8.88542 10.375 9C10.375 9.3724 10.2318 9.70182 9.94531 9.98828C9.6875 10.2461 9.3724 10.375 9 10.375C8.6276 10.375 8.29818 10.2461 8.01172 9.98828C7.75391 9.70182 7.625 9.3724 7.625 9C7.625 8.6276 7.75391 8.3125 8.01172 8.05469C8.29818 7.76823 8.6276 7.625 9 7.625C9.11458 7.625 9.22917 7.63932 9.34375 7.66797L12.3945 4.61719ZM2.98438 8.52734C3.1276 8.38411 3.29948 8.3125 3.5 8.3125C3.70052 8.3125 3.85807 8.38411 3.97266 8.52734C4.11589 8.64193 4.1875 8.79948 4.1875 9C4.1875 9.20052 4.11589 9.3724 3.97266 9.51562C3.85807 9.63021 3.70052 9.6875 3.5 9.6875C3.29948 9.6875 3.1276 9.63021 2.98438 9.51562C2.86979 9.3724 2.8125 9.20052 2.8125 9C2.8125 8.79948 2.86979 8.64193 2.98438 8.52734ZM13.9844 8.52734C14.1276 8.38411 14.2995 8.3125 14.5 8.3125C14.7005 8.3125 14.8581 8.38411 14.9727 8.52734C15.1159 8.64193 15.1875 8.79948 15.1875 9C15.1875 9.20052 15.1159 9.3724 14.9727 9.51562C14.8581 9.63021 14.7005 9.6875 14.5 9.6875C14.2995 9.6875 14.1276 9.63021 13.9844 9.51562C13.8698 9.3724 13.8125 9.20052 13.8125 9C13.8125 8.79948 13.8698 8.64193 13.9844 8.52734ZM4.61719 12.3945C4.76042 12.2513 4.91797 12.1797 5.08984 12.1797C5.29036 12.1797 5.46224 12.2513 5.60547 12.3945C5.7487 12.5378 5.82031 12.7096 5.82031 12.9102C5.82031 13.082 5.7487 13.2396 5.60547 13.3828C5.46224 13.4974 5.29036 13.5547 5.08984 13.5547C4.91797 13.5547 4.76042 13.4974 4.61719 13.3828C4.5026 13.2396 4.44531 13.082 4.44531 12.9102C4.44531 12.7096 4.5026 12.5378 4.61719 12.3945ZM12.3945 12.3945C12.5378 12.2513 12.6953 12.1797 12.8672 12.1797C13.0677 12.1797 13.2253 12.2513 13.3398 12.3945C13.4831 12.5378 13.5547 12.7096 13.5547 12.9102C13.5547 13.082 13.4831 13.2396 13.3398 13.3828C13.2253 13.4974 13.0677 13.5547 12.8672 13.5547C12.6953 13.5547 12.5378 13.4974 12.3945 13.3828C12.2513 13.2396 12.1797 13.082 12.1797 12.9102C12.1797 12.7096 12.2513 12.5378 12.3945 12.3945Z" fill="#232323"/>
</svg>
