<svg width="19" height="19" viewBox="0 0 19 19" fill="none" xmlns="http://www.w3.org/2000/svg">
<g clip-path="url(#clip0_94_9224)">
<path d="M4.4492 7.92183H3.69628C3.2969 7.92183 2.91388 7.76318 2.63148 7.48078C2.34908 7.19838 2.19043 6.81536 2.19043 6.41598V3.40429C2.19043 3.00491 2.34908 2.62189 2.63148 2.33949C2.91388 2.05709 3.2969 1.89844 3.69628 1.89844H15.7431C16.1424 1.89844 16.5255 2.05709 16.8079 2.33949C17.0903 2.62189 17.2489 3.00491 17.2489 3.40429V6.41598C17.2489 6.81536 17.0903 7.19838 16.8079 7.48078C16.5255 7.76318 16.1424 7.92183 15.7431 7.92183H14.9901" stroke="#060619" stroke-width="1.80702" stroke-linecap="round" stroke-linejoin="round"/>
<path d="M4.4492 10.9336H3.69628C3.2969 10.9336 2.91388 11.0922 2.63148 11.3746C2.34908 11.657 2.19043 12.0401 2.19043 12.4394V15.4511C2.19043 15.8505 2.34908 16.2335 2.63148 16.5159C2.91388 16.7983 3.2969 16.957 3.69628 16.957H15.7431C16.1424 16.957 16.5255 16.7983 16.8079 16.5159C17.0903 16.2335 17.2489 15.8505 17.2489 15.4511V12.4394C17.2489 12.0401 17.0903 11.657 16.8079 11.3746C16.5255 11.0922 16.1424 10.9336 15.7431 10.9336H14.9901" stroke="#060619" stroke-width="1.80702" stroke-linecap="round" stroke-linejoin="round"/>
<path d="M5.20215 4.91211H5.21048" stroke="#060619" stroke-width="1.80702" stroke-linecap="round" stroke-linejoin="round"/>
<path d="M5.20215 13.9473H5.21048" stroke="#060619" stroke-width="1.80702" stroke-linecap="round" stroke-linejoin="round"/>
<path d="M9.71971 11.6875C10.9672 11.6875 11.9785 10.6762 11.9785 9.42869C11.9785 8.18121 10.9672 7.16992 9.71971 7.16992C8.47222 7.16992 7.46094 8.18121 7.46094 9.42869C7.46094 10.6762 8.47222 11.6875 9.71971 11.6875Z" stroke="#060619" stroke-width="1.80702" stroke-linecap="round" stroke-linejoin="round"/>
<path d="M9.71973 6.41602V7.16894" stroke="#060619" stroke-width="1.80702" stroke-linecap="round" stroke-linejoin="round"/>
<path d="M9.71973 11.6875V12.4404" stroke="#060619" stroke-width="1.80702" stroke-linecap="round" stroke-linejoin="round"/>
<path d="M12.7314 9.42969H11.9785" stroke="#060619" stroke-width="1.80702" stroke-linecap="round" stroke-linejoin="round"/>
<path d="M7.46093 9.42969H6.70801" stroke="#060619" stroke-width="1.80702" stroke-linecap="round" stroke-linejoin="round"/>
<path d="M11.9785 7.16992L11.3159 7.8325" stroke="#060619" stroke-width="1.80702" stroke-linecap="round" stroke-linejoin="round"/>
<path d="M8.12351 11.0254L7.46094 11.688" stroke="#060619" stroke-width="1.80702" stroke-linecap="round" stroke-linejoin="round"/>
<path d="M11.9785 11.688L11.3159 11.0254" stroke="#060619" stroke-width="1.80702" stroke-linecap="round" stroke-linejoin="round"/>
<path d="M8.12351 7.8325L7.46094 7.16992" stroke="#060619" stroke-width="1.80702" stroke-linecap="round" stroke-linejoin="round"/>
</g>
<defs>
<clipPath id="clip0_94_9224">
<rect width="18.0702" height="18.0702" fill="white" transform="translate(0.68457 0.394531)"/>
</clipPath>
</defs>
</svg>
