<svg width="19" height="19" viewBox="0 0 19 19" fill="none" xmlns="http://www.w3.org/2000/svg">
<g clip-path="url(#clip0_94_8975)">
<path d="M15.2162 2.16406H3.16942C2.33777 2.16406 1.66357 2.83825 1.66357 3.66991V6.68161C1.66357 7.51326 2.33777 8.18745 3.16942 8.18745H15.2162C16.0479 8.18745 16.7221 7.51326 16.7221 6.68161V3.66991C16.7221 2.83825 16.0479 2.16406 15.2162 2.16406Z" stroke="#4C7E0D" stroke-width="1.80702" stroke-linecap="round" stroke-linejoin="round"/>
<path d="M15.2162 11.1992H3.16942C2.33777 11.1992 1.66357 11.8734 1.66357 12.7051V15.7168C1.66357 16.5484 2.33777 17.2226 3.16942 17.2226H15.2162C16.0479 17.2226 16.7221 16.5484 16.7221 15.7168V12.7051C16.7221 11.8734 16.0479 11.1992 15.2162 11.1992Z" stroke="#4C7E0D" stroke-width="1.80702" stroke-linecap="round" stroke-linejoin="round"/>
<path d="M4.67529 5.17578H4.68363" stroke="#4C7E0D" stroke-width="1.80702" stroke-linecap="round" stroke-linejoin="round"/>
<path d="M4.67529 14.2109H4.68363" stroke="#4C7E0D" stroke-width="1.80702" stroke-linecap="round" stroke-linejoin="round"/>
</g>
<defs>
<clipPath id="clip0_94_8975">
<rect width="18.0702" height="18.0702" fill="white" transform="translate(0.157715 0.658203)"/>
</clipPath>
</defs>
</svg>
